HIERARCHY
ROOT Hips
{
	OFFSET 0.000000 0.000000 0.000000 
	CHANNELS 6 Xposition Yposition Zposition Zrotation Yrotation Xrotation
	JOINT LeftUpLeg
	{
		OFFSET 1.363060 -1.794630 0.839290 
		CHANNELS 3 Zrotation Yrotation Xrotation
		JOINT LeftLeg
		{
			OFFSET 2.448110 -6.726130 0.000000 
			CHANNELS 3 Zrotation Yrotation Xrotation
			JOINT LeftFoot
			{
				OFFSET 2.562200 -7.039590 0.000000 
				CHANNELS 3 Zrotation Yrotation Xrotation
				JOINT LeftToeBase
				{
					OFFSET 0.157640 -0.433110 2.322550 
					CHANNELS 3 Zrotation Yrotation Xrotation
					End Site
					{
						OFFSET 0.000000 0.000000 0.000000 
					}
				}
			}
		}
	}
	JOINT RightUpLeg
	{
		OFFSET -1.305520 -1.794630 0.839290 
		CHANNELS 3 Zrotation Yrotation Xrotation
		JOINT RightLeg
		{
			OFFSET -2.542530 -6.985550 0.000000 
			CHANNELS 3 Zrotation Yrotation Xrotation
			JOINT RightFoot
			{
				OFFSET -2.568260 -7.056230 0.000000 
				CHANNELS 3 Zrotation Yrotation Xrotation
				JOINT RightToeBase
				{
					OFFSET -0.164730 -0.452590 2.363150 
					CHANNELS 3 Zrotation Yrotation Xrotation
					End Site
					{
						OFFSET 0.000000 0.000000 0.000000 
					}
				}
			}
		}
	}
	JOINT Spine
	{
		OFFSET 0.028270 2.035590 -0.193380 
		CHANNELS 3 Zrotation Yrotation Xrotation
		JOINT Spine1
		{
			OFFSET 0.056720 2.048850 -0.042750 
			CHANNELS 3 Zrotation Yrotation Xrotation
			JOINT Neck1
			{
				OFFSET -0.054170 1.746240 0.172020 
				CHANNELS 3 Zrotation Yrotation Xrotation
				JOINT Head
				{
					OFFSET 0.104070 1.761360 -0.123970 
					CHANNELS 3 Zrotation Yrotation Xrotation
					End Site
					{
						OFFSET 0.000000 0.000000 0.000000 
					}
				}
			}
			JOINT LeftArm
			{
				OFFSET 3.362410 1.200890 -0.311210 
				CHANNELS 3 Zrotation Yrotation Xrotation
				JOINT LeftForeArm
				{
					OFFSET 4.983000 -0.000000 -0.000000 
					CHANNELS 3 Zrotation Yrotation Xrotation
					JOINT LeftHand
					{
						OFFSET 3.483560 -0.000000 -0.000000 
						CHANNELS 3 Zrotation Yrotation Xrotation
						JOINT LeftHandIndex1
						{
							OFFSET 0.715260 -0.000000 -0.000000 
							CHANNELS 3 Zrotation Yrotation Xrotation
							End Site
							{
								OFFSET 0.000000 0.000000 0.000000 
							}
						}
					}
				}
			}
			JOINT RightArm
			{
				OFFSET -3.136600 1.374050 -0.404650 
				CHANNELS 3 Zrotation Yrotation Xrotation
				JOINT RightForeArm
				{
					OFFSET -5.241900 -0.000000 -0.000000 
					CHANNELS 3 Zrotation Yrotation Xrotation
					JOINT RightHand
					{
						OFFSET -3.444170 -0.000000 -0.000000 
						CHANNELS 3 Zrotation Yrotation Xrotation
						JOINT RightHandIndex1
						{
							OFFSET -0.622530 -0.000000 -0.000000 
							CHANNELS 3 Zrotation Yrotation Xrotation
							End Site
							{
								OFFSET 0.000000 0.000000 0.000000 
							}
						}
					}
				}
			}
		}
	}
}
MOTION
Frames: 13
Frame Time: 0.041667
-0.107580 18.378658 8.585035 -9.384342 2.554564 15.736769 -15.577177 -47.810493 15.867721 -3.575739 -1.961295 -3.108872 -14.631354 45.564450 -31.660219 0.606000 4.982700 13.859300 23.325900 24.434006 -2.798170 3.510001 -0.951313 3.343671 7.370058 -24.030811 -2.746069 -0.002200 0.301900 -0.829400 12.362358 5.537786 -32.029489 -9.502412 -0.343099 -3.688642 34.773877 -25.272978 4.520267 7.537600 -12.957500 4.126400 -83.199732 9.348275 -4.917920 11.642429 -13.206447 -1.950484 0.147989 1.460854 31.969086 -7.125000 0.000000 0.000000 81.485216 -12.657556 -5.533762 -17.444111 22.719724 -4.349342 0.597335 1.888139 37.633388 7.125000 0.000000 0.000000 
-0.114198 18.377292 8.583144 -9.664191 2.683081 15.590224 -15.390988 -47.772488 15.824932 -3.571993 -1.996551 -3.133129 -14.784160 45.702824 -31.352623 0.598600 4.952900 13.774400 23.468218 24.349037 -2.834535 3.505666 -0.952037 3.335522 7.383081 -24.096989 -2.636562 -0.003200 0.363600 -0.999000 14.198715 5.828395 -30.797012 -10.027439 -0.470060 -3.921407 34.540561 -25.390699 5.252045 7.413200 -12.883100 4.330800 -83.430748 8.827286 -5.563630 11.732002 -13.324548 -1.980969 0.187066 1.460792 32.142552 -7.125000 0.000000 0.000000 80.993620 -12.217737 -6.118057 -16.863077 22.028252 -4.083747 0.651089 1.858242 38.430442 7.125000 0.000000 0.000000 
-0.118085 18.377082 8.579782 -10.048360 2.874538 15.444337 -14.980607 -47.583399 15.579743 -3.568470 -2.033892 -3.138970 -14.806938 45.604611 -30.959941 0.588200 4.910200 13.652800 23.662750 24.169634 -2.967702 3.495949 -0.987201 3.417736 7.325587 -23.959488 -2.570091 -0.003500 0.380300 -1.045000 16.416413 6.157148 -29.465466 -10.672726 -0.631604 -4.203114 34.315781 -25.451198 5.666717 7.317100 -12.828500 4.476700 -83.793590 8.283243 -6.543921 11.835351 -13.470205 -2.022501 0.250112 1.475972 32.565741 -7.125000 0.000000 0.000000 80.517347 -11.843373 -6.670163 -16.333317 21.400962 -3.850437 0.702233 1.826024 39.306595 7.125000 0.000000 0.000000 
-0.119451 18.376031 8.577681 -10.351529 3.074205 15.260704 -14.795502 -47.526848 15.558663 -3.571637 -2.078983 -3.155567 -14.798647 45.515579 -30.786159 0.587400 4.907000 13.643600 23.776609 23.856749 -3.130311 3.483991 -1.030747 3.533425 7.223951 -23.683381 -2.466535 -0.002300 0.313100 -0.860200 18.451852 6.354293 -28.037825 -11.247839 -0.807445 -4.573552 34.190093 -25.512840 6.132664 7.252000 -12.771100 4.648000 -84.154504 7.791976 -7.236401 11.965067 -13.651779 -2.072651 0.300796 1.484393 32.638247 -7.125000 0.000000 0.000000 80.025463 -11.495236 -7.276376 -15.832169 20.810062 -3.637944 0.744936 1.798760 40.143724 7.125000 0.000000 0.000000 
-0.123128 18.378658 8.584614 -10.243314 3.205540 15.223805 -15.075602 -47.780516 15.707057 -3.575803 -2.101264 -3.169083 -14.821813 45.581683 -30.915924 0.586400 4.903200 13.632600 23.583463 24.180268 -2.920975 3.499071 -0.967372 3.386668 7.363084 -24.020212 -2.770479 -0.000300 -0.116200 0.319200 19.377922 6.228895 -26.961246 -11.314062 -0.947602 -4.777262 33.717726 -25.684191 6.786234 7.036400 -12.728500 4.823900 -84.331167 7.491046 -6.538966 12.178607 -13.893915 -2.124803 0.226912 1.428543 31.168531 -7.125000 0.000000 0.000000 79.512354 -11.109369 -8.021766 -15.288442 20.167104 -3.427227 0.785789 1.796594 40.707573 7.125000 0.000000 0.000000 
-0.125650 18.383385 8.594280 -10.050990 3.418087 15.385376 -15.184013 -48.116203 15.694431 -3.564645 -2.086812 -3.197030 -14.925002 45.764905 -30.935221 0.561100 4.798100 13.333500 23.576036 25.098577 -2.341992 3.540061 -0.818410 3.011883 7.718297 -24.966208 -3.547083 -0.014700 -0.783600 2.153500 18.763274 5.990921 -27.233949 -11.157161 -1.017361 -5.071576 33.476118 -26.188389 8.212325 6.882800 -12.763400 5.217500 -84.359785 7.675156 -4.627932 12.437685 -14.191100 -2.177905 0.032342 1.300522 28.588490 -7.125000 0.000000 0.000000 79.256836 -11.069528 -9.077888 -14.734101 19.494555 -3.222584 0.824739 1.817448 41.048482 7.125000 0.000000 0.000000 
-0.121027 18.382755 8.591233 -10.439807 3.830991 15.304587 -14.821083 -48.184080 15.641874 -3.549776 -2.086300 -3.205522 -15.070700 45.871719 -30.500929 0.504800 4.554500 12.642100 24.073441 25.423736 -1.970323 3.560237 -0.748539 2.822909 7.882504 -25.470275 -3.982172 -0.026400 -1.049300 2.884400 19.686875 6.206335 -27.320496 -11.636960 -1.116038 -5.319981 33.443585 -26.189783 8.427091 6.955500 -12.749900 5.295900 -84.699741 7.874374 -3.582837 12.642648 -14.445507 -2.234842 -0.075199 1.219485 27.070182 -7.125000 0.000000 0.000000 79.091952 -11.267015 -10.308967 -14.272461 18.924641 -3.051065 0.868452 1.801655 41.855379 7.125000 0.000000 0.000000 
-0.116825 18.380864 8.583984 -10.808236 4.151109 15.108209 -14.548101 -48.047065 15.547106 -3.543227 -2.099024 -3.174154 -15.133088 45.822769 -29.984730 0.457400 4.338300 12.030500 24.353065 25.338934 -1.895723 3.562055 -0.744787 2.799358 7.895131 -25.542150 -4.059146 -0.028900 -1.098200 3.019200 21.484576 6.435024 -26.645018 -12.169903 -1.287663 -5.681862 33.275883 -26.031625 8.512210 7.002600 -12.667800 5.336100 -85.192435 7.791058 -3.605684 12.789321 -14.635538 -2.285990 -0.085493 1.200785 26.566890 -7.125000 0.000000 0.000000 78.799253 -11.319298 -11.433678 -13.868509 18.437098 -2.900920 0.913640 1.756723 43.084984 7.125000 0.000000 0.000000 
-0.115564 18.379708 8.580727 -10.981192 4.377472 15.040369 -14.414894 -47.996323 15.425613 -3.542520 -2.110478 -3.148328 -15.102866 45.708203 -29.773294 0.457100 4.337300 12.027600 24.400426 25.418057 -1.858325 3.566811 -0.744393 2.775082 7.941109 -25.675734 -4.235067 -0.035100 -1.209100 3.324300 22.962659 6.591504 -26.204298 -12.456693 -1.445158 -5.901332 32.934401 -25.901612 8.639209 7.001300 -12.593000 5.375300 -85.695220 7.734151 -3.649242 12.914927 -14.782070 -2.328236 -0.085945 1.188947 26.147964 -7.125000 0.000000 0.000000 78.494436 -11.369774 -12.588186 -13.486388 17.976224 -2.769655 0.962570 1.716070 44.246552 7.125000 0.000000 0.000000 
-0.114303 18.378448 8.577891 -11.206049 4.645343 14.949031 -14.211242 -47.963728 15.298492 -3.541091 -2.122055 -3.120763 -15.046902 45.550326 -29.576121 0.471600 4.404400 12.217400 24.529138 25.549344 -1.771512 3.573146 -0.740899 2.744805 8.016612 -25.898113 -4.466052 -0.036400 -1.230800 3.384100 24.523935 6.714560 -25.660227 -12.752313 -1.623652 -6.156258 32.617210 -25.728312 8.682432 7.011700 -12.507400 5.394600 -86.208353 7.679066 -3.646268 13.045842 -14.938948 -2.375179 -0.081426 1.182257 25.766115 -7.125000 0.000000 0.000000 78.161070 -11.381100 -13.789077 -13.109214 17.522059 -2.643801 1.007304 1.672254 45.466522 7.125000 0.000000 0.000000 
-0.111887 18.379078 8.578521 -11.706873 5.002671 14.379894 -14.245050 -47.929536 15.496229 -3.561767 -2.223701 -3.076613 -15.005237 45.360461 -29.419828 0.474300 4.416800 12.252500 24.581401 25.564652 -1.613784 3.577489 -0.719931 2.690778 8.083885 -26.076956 -4.610683 -0.036700 -1.237100 3.401300 29.983018 6.256636 -21.267225 -13.559947 -2.346373 -7.705126 31.681231 -25.443315 9.917405 6.863100 -12.166200 5.884900 -87.621306 6.781802 -5.059603 13.258725 -15.245972 -2.452336 -0.071349 1.168470 25.583996 -7.125000 0.000000 0.000000 76.820082 -10.409436 -13.680520 -12.614800 17.024451 -2.496600 1.045114 1.618131 46.762140 7.125000 0.000000 0.000000 
-0.111151 18.383280 8.583879 -11.366607 5.000176 14.467352 -14.793164 -48.260811 15.782799 -3.569804 -2.216270 -3.073179 -15.028948 45.509975 -29.801576 0.474100 4.415700 12.249200 24.181063 25.687795 -1.596086 3.584922 -0.708071 2.651511 8.162131 -26.241588 -4.766196 -0.042800 -1.335400 3.672100 29.584949 6.257160 -21.595101 -13.327560 -2.297012 -7.525632 31.561706 -25.460133 9.992996 6.819200 -12.167300 5.878200 -87.701301 6.851771 -4.643224 13.381974 -15.370911 -2.491106 -0.057526 1.147462 25.274519 -7.125000 0.000000 0.000000 76.760097 -10.619286 -14.985188 -12.424049 16.773281 -2.435471 1.080230 1.591680 47.623137 7.125000 0.000000 0.000000 
-0.113778 18.390109 8.589027 -10.735675 4.882961 14.766076 -15.559397 -48.739972 15.987263 -3.576496 -2.189669 -3.049459 -15.083593 45.761715 -30.334935 0.478700 4.437000 12.309500 23.401200 26.066305 -1.694165 3.593030 -0.714783 2.624689 8.308789 -26.557864 -4.996802 -0.051500 -1.465000 4.029300 28.825334 6.279070 -22.392644 -12.827766 -2.214536 -7.164658 31.410109 -25.483425 10.026668 6.764000 -12.176100 5.860700 -87.767475 6.949630 -4.177402 13.483611 -15.444766 -2.518170 -0.051643 1.132639 24.921865 -7.125000 0.000000 0.000000 76.655820 -10.859546 -16.149725 -12.248582 16.544589 -2.383395 1.112240 1.566679 48.340184 7.125000 0.000000 0.000000 
